# xmcd
#
# Track frame offsets:
#	150
#	13695
#	24979
#	38525
#	50565
#	62970
#	77552
#	89000
#	103168
#	116363
#	126942
#	138416
#	150407
#	163721
#	177307
#	188979
#	203522
#	213403
#	224412
#	234237
#	246153
#	259169
#	270959
#	283743
#	293035
#	305550
#	315292
#
# Disc length: 4372 seconds
#
# Revision: 1
# Processed by: cddbd v1.4PL0 Copyright (c) Steve Scherf et al.
# Submitted via: audiograbber 1.82.02
#
DISCID=7c11121b
DTITLE=Little Milton - Anthology 1953-1961
DYEAR=2002
DGENRE=Blues
TTITLE0=Somebody Told Me
TTITLE1=Beggin' My Baby
TTITLE2=I Love My Baby
TTITLE3=Running Wild Blues
TTITLE4=Oo-Wee, Wee Baby
TTITLE5=If Crying Would Help Me
TTITLE6=If You Love Me
TTITLE7=Alone And Blue
TTITLE8=Lookin' For My Baby
TTITLE9=Homesick For My Baby
TTITLE10=She's My Queen
TTITLE11=Re-Beat
TTITLE12=That Will Never Do
TTITLE13=I'm A Lonely Man
TTITLE14=Long Distance Operator
TTITLE15=I Found Me A New Love
TTITLE16=I'm Tryin'
TTITLE17=Strange Dreams
TTITLE18=Hold Me Tight
TTITLE19=Same Old Blues
TTITLE20=Dead Love
TTITLE21=My Baby Pleases Me
TTITLE22=Let It Be Known
TTITLE23=Hey Girl!
TTITLE24=Cross My Heart
TTITLE25=I'm In Love
TTITLE26=My Mind Is Troubled
EXTD=
EXTT0=
EXTT1=
EXTT2=
EXTT3=
EXTT4=
EXTT5=
EXTT6=
EXTT7=
EXTT8=
EXTT9=
EXTT10=
EXTT11=
EXTT12=
EXTT13=
EXTT14=
EXTT15=
EXTT16=
EXTT17=
EXTT18=
EXTT19=
EXTT20=
EXTT21=
EXTT22=
EXTT23=
EXTT24=
EXTT25=
EXTT26=
PLAYORDER=
